<?xml version="1.0" standalone="no"?>
<!DOCTYPE svg PUBLIC "-//W3C//DTD SVG 20010904//EN"
 "http://www.w3.org/TR/2001/REC-SVG-20010904/DTD/svg10.dtd">
<svg version="1.0" xmlns="http://www.w3.org/2000/svg"
 width="138.000000pt" height="138.000000pt" viewBox="0 0 138.000000 138.000000"
 preserveAspectRatio="xMidYMid meet">
<metadata>
Created by potrace 1.11, written by Peter Selinger 2001-2013
</metadata>
<g transform="translate(0.000000,138.000000) scale(0.100000,-0.100000)"
fill="#000000" stroke="none">
<path d="M80 1307 c0 -4 10 -23 21 -44 12 -21 40 -72 62 -113 22 -41 50 -93
62 -115 12 -22 53 -97 90 -168 l67 -127 -78 -148 c-42 -81 -87 -165 -99 -187
-58 -106 -175 -333 -175 -340 0 -4 6 -3 12 2 13 10 70 41 288 155 58 31 157
83 222 117 64 33 121 61 127 61 9 0 62 -24 294 -134 217 -103 333 -158 360
-172 l29 -15 -25 43 c-33 56 -203 363 -252 453 -21 39 -53 96 -71 128 -19 32
-34 62 -34 68 0 5 59 126 130 269 71 143 130 262 130 264 0 3 -12 -2 -27 -9
-49 -24 -427 -185 -429 -182 -1 1 -16 28 -34 60 l-32 57 -49 -70 -49 -70 -53
21 c-28 11 -119 48 -202 81 -82 32 -175 69 -205 80 -30 12 -61 26 -67 31 -7 5
-13 7 -13 4z"/>
</g>
</svg>
